:version 1.10
:name ASF
:units
  mass 1
  length 1
  angle deg
:documentation
  ASF file generated by Kaydara
:root
  axis xyz
  order  tx ty tz rx ry rz
  position 0 0 0
  orientation 0 0 0
:bonedata
  begin
    id 1
    name RightUpLegDummy
    direction -0.718183 -0.695806 0.00816078
    length 4.904
    axis 0 0 0 xyz
  end
  begin
    id 2
    name RightUpLeg
    direction 3.53373e-006 -0.995788 0.0916898
    length 17.4976
    axis -3.49089 -0.000906625 0.000286804 xyz
    dof rx ry rz
  end
  begin
    id 3
    name RightLeg
    direction 0.00371092 -0.995096 -0.0988419
    length 16.5821
    axis 3.68512 0.0193738 -0.131023 xyz
    dof rx ry rz
  end
  begin
    id 4
    name RightFoot
    direction 0.00079151 -0.46099 0.887405
    length 3.77069
    axis 4.81691e-005 -0.120479 -0.188788 xyz
    dof rx ry rz
  end
  begin
    id 5
    name RightToes
    direction 0 0 0
    length 0
    axis 0 0 0 xyz
    dof rx ry rz
  end
  begin
    id 6
    name SpineDummy
    direction 8.3039e-015 1 4.57515e-016
    length 4.6813
    axis 0 0 0 xyz
  end
  begin
    id 7
    name Spine
    direction -3.15643e-008 0.999988 0.00495137
    length 10.1015
    axis -0.001389 0.000121418 2.40972e-006 xyz
    dof rx ry rz
  end
  begin
    id 8
    name Spine1
    direction 0 0 0
    length 0
    axis -0.001389 0.000121451 1.30017e-006 xyz
    dof rx ry rz
  end
  begin
    id 9
    name HEadDummy
    direction -1.99912e-008 0.999999 0.00127422
    length 3.43865
    axis -0.001389 0.000121451 1.30017e-006 xyz
  end
  begin
    id 10
    name HEad
    direction 0 0 0
    length 0
    axis 0 0 0 xyz
    dof rx ry rz
  end
  begin
    id 11
    name LeftShoulder1Dummy
    direction 0.998891 -0.0402509 -0.0244456
    length 3.5433
    axis -0.001389 0.000121451 1.30017e-006 xyz
  end
  begin
    id 12
    name LeftShoulder1
    direction 0.99951 -0.000327763 0.0313091
    length 4.05031
    axis -0.001389 0.000121451 1.30017e-006 xyz
    dof rx ry rz
  end
  begin
    id 13
    name LeftArm
    direction 0.998561 -0.00100056 -0.0536182
    length 10.3537
    axis -23.1894 0.134784 0.967509 xyz
    dof rx ry rz
  end
  begin
    id 14
    name LeftForeArm
    direction 0.998903 0.00866432 0.046012
    length 8.70632
    axis -9.91835 -0.06569 -0.177794 xyz
    dof rx ry rz
  end
  begin
    id 15
    name LeftHand
    direction 0 0 0
    length 0
    axis 0 0 0 xyz
    dof rx ry rz
  end
  begin
    id 16
    name RightShoulderDummy
    direction -0.998891 -0.0402509 -0.0244414
    length 3.5433
    axis -0.001389 0.000121451 1.30017e-006 xyz
  end
  begin
    id 17
    name RightShoulder
    direction -0.99951 -0.000327807 0.0313133
    length 4.05031
    axis 0.215806 0.000203643 -0.0068026 xyz
    dof rx ry rz
  end
  begin
    id 18
    name RightArm
    direction -0.998573 -0.000999564 -0.053403
    length 10.3947
    axis -23.2009 -0.134239 -0.964101 xyz
    dof rx ry rz
  end
  begin
    id 19
    name RightForeArm
    direction -0.998898 0.00868028 0.0461306
    length 8.68355
    axis -9.92322 0.0658061 0.178868 xyz
    dof rx ry rz
  end
  begin
    id 20
    name RightHand
    direction 0 0 0
    length 0
    axis 0 0 0 xyz
    dof rx ry rz
  end
  begin
    id 21
    name LeftUpLegDummy
    direction 0.718183 -0.695806 0.00816078
    length 4.904
    axis 0 0 0 xyz
  end
  begin
    id 22
    name LeftUpLeg
    direction -6.81752e-006 -0.995793 0.0916337
    length 17.4976
    axis -3.48766 0.00143442 -0.000524262 xyz
    dof rx ry rz
  end
  begin
    id 23
    name LeftLeg
    direction -0.00601358 -0.995091 -0.0987824
    length 16.5821
    axis 3.68178 -0.00654042 -0.000285133 xyz
    dof rx ry rz
  end
  begin
    id 24
    name LeftFoot
    direction -0.00417578 -0.460984 0.887399
    length 3.77069
    axis 1.87233e-006 4.66016e-005 -8.6538e-006 xyz
    dof rx ry rz
  end
  begin
    id 25
    name LeftToes
    direction 0 0 0
    length 0
    axis 0 0 0 xyz
    dof rx ry rz
  end
:hierarchy
  begin
    root RightUpLegDummy SpineDummy LeftUpLegDummy
    RightUpLegDummy RightUpLeg
    RightUpLeg RightLeg
    RightLeg RightFoot
    RightFoot RightToes
    SpineDummy Spine
    Spine Spine1
    Spine1 HEadDummy LeftShoulder1Dummy RightShoulderDummy
    HEadDummy HEad
    LeftShoulder1Dummy LeftShoulder1
    LeftShoulder1 LeftArm
    LeftArm LeftForeArm
    LeftForeArm LeftHand
    RightShoulderDummy RightShoulder
    RightShoulder RightArm
    RightArm RightForeArm
    RightForeArm RightHand
    LeftUpLegDummy LeftUpLeg
    LeftUpLeg LeftLeg
    LeftLeg LeftFoot
    LeftFoot LeftToes
  end

:SAMPLES-PER-SECOND 30
:FULLY-SPECIFIED
:DEGREES
615
root  14.6767 40.6297 9.77966 148.285 87.4122 150.692
RightUpLeg  2.69125 -11.838 -12.6447
RightLeg  5.66418 -10.3214 2.73197
RightFoot  -0.42935 -0.417441 4.30137
RightToes  0.000481921 0.542163 -0.142578
Spine  -0.829516 -0.336967 -3.0285
Spine1  12.7881 -1.67436 4.78604
HEad  14.5693 -0.769636 0.0487978
LeftShoulder1  9.29558 -12.9051 -49.4564
LeftArm  -8.5849 16.0759 -24.8182
LeftForeArm  175.485 -54.3372 -166.455
LeftHand  -0.25398 0.0180481 5.50724
RightShoulder  4.59625 7.44535 35.9945
RightArm  -0.105592 -21.5089 36.6711
RightForeArm  144.769 45.3458 168.09
RightHand  -1.89412 4.44337 -22.4368
LeftUpLeg  2.57188 7.6295 8.59756
LeftLeg  1.32086 12.4917 -3.37772
LeftFoot  2.41954 0.684944 -5.79482
LeftToes  1.06245e-005 4.65869e-005 -8.65517e-006
616
root  14.6684 40.6306 9.78475 148.759 87.4047 151.21
RightUpLeg  2.72873 -11.8477 -12.6368
RightLeg  5.66997 -10.3326 2.75083
RightFoot  -0.429834 -0.414721 4.2688
RightToes  0.000481921 0.542163 -0.142578
Spine  -0.985684 -0.25287 -2.80686
Spine1  13.0806 -1.50005 4.45903
HEad  14.5407 -0.847557 0.1116
LeftShoulder1  9.34626 -13.0152 -49.3954
LeftArm  -8.4627 15.9465 -24.8455
LeftForeArm  175.408 -54.5239 -166.36
LeftHand  -0.25398 0.0180481 5.50724
RightShoulder  4.60898 7.49279 35.9308
RightArm  -0.856537 -19.6463 36.3403
RightForeArm  145.179 46.472 167.688
RightHand  -1.86965 4.30872 -22.4497
LeftUpLeg  2.59769 7.64467 8.63085
LeftLeg  1.32789 12.443 -3.37753
LeftFoot  2.4331 0.685581 -5.78599
LeftToes  1.06245e-005 4.65869e-005 -8.65517e-006
617
root  14.6569 40.6315 9.78465 147.947 87.4305 150.46
RightUpLeg  2.76363 -11.87 -12.6718
RightLeg  5.67861 -10.2657 2.76196
RightFoot  -0.422087 -0.412984 4.24941
RightToes  0.000481921 0.542163 -0.142578
Spine  -1.14753 -0.14264 -2.59795
Spine1  13.3728 -1.29107 4.12345
HEad  14.4915 -1.06516 0.233476
LeftShoulder1  9.42356 -13.1596 -49.3729
LeftArm  -8.34534 15.8531 -24.8171
LeftForeArm  175.373 -54.64 -166.3
LeftHand  -0.25398 0.0180481 5.50724
RightShoulder  4.58608 7.47853 35.7801
RightArm  -1.83426 -16.9547 35.8073
RightForeArm  144.542 48.104 166.997
RightHand  -1.76599 3.79683 -22.3736
LeftUpLeg  2.67251 7.63456 8.61685
LeftLeg  1.29151 12.4836 -3.38223
LeftFoot  2.46289 0.68497 -5.75871
LeftToes  1.06245e-005 4.65869e-005 -8.65517e-006
618
root  14.6433 40.6325 9.78048 146.196 87.473 148.761
RightUpLeg  2.77157 -11.8962 -12.7326
RightLeg  5.6915 -10.1561 2.75933
RightFoot  -0.397651 -0.412667 4.24872
RightToes  0.000481921 0.542163 -0.142578
Spine  -1.34382 -0.0467975 -2.47046
Spine1  13.6511 -1.10566 3.8344
HEad  14.4565 -1.37945 0.363489
LeftShoulder1  9.46295 -13.2538 -49.3012
LeftArm  -8.21295 15.7681 -24.8323
LeftForeArm  175.356 -54.6857 -166.277
LeftHand  -0.25398 0.0180481 5.50724
RightShoulder  4.54357 7.46549 35.4494
RightArm  -2.8868 -13.4074 35.1638
RightForeArm  142.11 50.3386 165.874
RightHand  -1.67423 3.30602 -22.3907
LeftUpLeg  2.76235 7.5942 8.55709
LeftLeg  1.20865 12.6036 -3.38602
LeftFoot  2.51255 0.684898 -5.74002
LeftToes  1.06245e-005 4.65869e-005 -8.65517e-006
619
root  14.6253 40.6332 9.775 144.932 87.5281 147.545
RightUpLeg  2.7729 -11.8838 -12.7462
RightLeg  5.68378 -10.0924 2.73623
RightFoot  -0.342082 -0.412541 4.24639
RightToes  0.000481921 0.542163 -0.142578
Spine  -1.5346 -0.0157191 -2.29626
Spine1  13.8768 -0.951448 3.42099
HEad  14.5356 -1.70048 0.505299
LeftShoulder1  9.42723 -13.2806 -49.0364
LeftArm  -8.09618 15.7496 -24.9667
LeftForeArm  175.341 -54.686 -166.276
LeftHand  -0.25398 0.0180481 5.50724
RightShoulder  4.49902 7.50461 34.9078
RightArm  -3.88609 -9.06826 34.7268
RightForeArm  138.269 53.3092 164.164
RightHand  -1.67438 3.17748 -22.7101
LeftUpLeg  2.82841 7.5603 8.51997
LeftLeg  1.14526 12.7206 -3.37462
LeftFoot  2.5589 0.686727 -5.75036
LeftToes  1.06245e-005 4.65869e-005 -8.65517e-006
620
root  14.6016 40.6336 9.77174 144.797 87.5896 147.477
RightUpLeg  2.80099 -11.828 -12.6943
RightLeg  5.64954 -10.1002 2.70108
RightFoot  -0.2652 -0.411751 4.22654
RightToes  0.000481921 0.542163 -0.142578
Spine  -1.65026 -0.035863 -2.02784
Spine1  13.9746 -0.810127 2.86758
HEad  14.7814 -2.0195 0.665787
LeftShoulder1  9.37781 -13.3122 -48.6866
LeftArm  -8.00831 15.8536 -25.1104
LeftForeArm  175.366 -54.679 -166.281
LeftHand  -0.25398 0.0180481 5.50724
RightShoulder  4.44476 7.55179 34.2515
RightArm  -4.69788 -4.00357 34.5428
RightForeArm  133.393 57.1825 161.546
RightHand  -1.72812 3.22167 -23.2987
LeftUpLeg  2.87069 7.56179 8.54329
LeftLeg  1.14679 12.7715 -3.3504
LeftFoot  2.5865 0.689283 -5.77055
LeftToes  1.06245e-005 4.65869e-005 -8.65517e-006
621
root  14.5756 40.6337 9.77305 144.874 87.6453 147.637
RightUpLeg  2.84643 -11.7767 -12.6396
RightLeg  5.61423 -10.108 2.6774
RightFoot  -0.201051 -0.412077 4.20873
RightToes  0.000481921 0.542163 -0.142578
Spine  -1.72942 -0.016944 -1.78366
Spine1  13.971 -0.647547 2.39225
HEad  15.0991 -2.40995 0.82672
LeftShoulder1  9.40118 -13.4174 -48.5033
LeftArm  -7.88222 15.943 -25.0873
LeftForeArm  175.364 -54.7244 -166.259
LeftHand  -0.25398 0.0180481 5.50724
RightShoulder  4.35834 7.53481 33.5365
RightArm  -5.23556 1.63835 34.4276
RightForeArm  126.692 61.9951 157.338
RightHand  -1.79817 3.29812 -24.002
LeftUpLeg  2.91167 7.58526 8.59015
LeftLeg  1.17779 12.7802 -3.33555
LeftFoot  2.60626 0.690816 -5.77362
LeftToes  1.06245e-005 4.65869e-005 -8.65517e-006
622
root  14.549 40.6337 9.77864 144.504 87.6951 147.334
RightUpLeg  2.86888 -11.7516 -12.6115
RightLeg  5.59565 -10.0762 2.67205
RightFoot  -0.16379 -0.414283 4.22321
RightToes  0.000481921 0.542163 -0.142578
Spine  -1.89542 0.108627 -1.57977
Spine1  14.0324 -0.412328 2.06023
HEad  15.3367 -2.972 1.01439
LeftShoulder1  9.49237 -13.5784 -48.513
LeftArm  -7.65304 15.7831 -24.9094
LeftForeArm  175.218 -54.8587 -166.181
LeftHand  -0.25398 0.0180481 5.50724
RightShoulder  4.2344 7.46424 32.6637
RightArm  -5.55926 7.48751 34.3909
RightForeArm  116.891 67.4421 150.311
RightHand  -1.92248 3.66986 -24.5972
LeftUpLeg  2.94256 7.61018 8.62807
LeftLeg  1.19921 12.7907 -3.33746
LeftFoot  2.62977 0.691326 -5.7639
LeftToes  1.06245e-005 4.65869e-005 -8.65517e-006
623
root  14.5192 40.6338 9.78691 144.622 87.7402 147.497
RightUpLeg  2.86136 -11.7197 -12.5621
RightLeg  5.58701 -10.069 2.66873
RightFoot  -0.130935 -0.417565 4.25453
RightToes  0.000481921 0.542163 -0.142578
Spine  -2.1527 0.304626 -1.25613
Spine1  14.2379 -0.0877781 1.6668
HEad  15.4461 -3.74808 1.29767
LeftShoulder1  9.57404 -13.7246 -48.5155
LeftArm  -7.35694 15.373 -24.7717
LeftForeArm  175.021 -55.0317 -166.08
LeftHand  -0.25398 0.0180481 5.50724
RightShoulder  4.10717 7.43481 31.6024
RightArm  -5.80472 13.1312 34.5478
RightForeArm  102.086 72.8619 137.974
RightHand  -2.07532 4.30178 -24.8326
LeftUpLeg  2.92999 7.6437 8.68227
LeftLeg  1.2413 12.7822 -3.33517
LeftFoot  2.64954 0.692175 -5.76176
LeftToes  1.06245e-005 4.65869e-005 -8.65517e-006
624
root  14.4851 40.634 9.79683 146.209 87.7643 149.126
RightUpLeg  2.85735 -11.6642 -12.464
RightLeg  5.57341 -10.1445 2.66284
RightFoot  -0.0802968 -0.4186 4.25144
RightToes  0.000481921 0.542163 -0.142578
Spine  -2.34254 0.500369 -0.731332
Spine1  14.4303 0.289532 1.07456
HEad  15.4705 -4.66114 1.65122
LeftShoulder1  9.61157 -13.8296 -48.41
LeftArm  -7.07085 14.9669 -24.7889
LeftForeArm  175.01 -55.1592 -166.016
LeftHand  -0.25398 0.0180481 5.50724
RightShoulder  4.02425 7.51749 30.5588
RightArm  -5.98628 18.467 34.7778
RightForeArm  76.9365 77.1212 114.979
RightHand  -2.15818 4.72454 -24.757
LeftUpLeg  2.87087 7.69427 8.77473
LeftLeg  1.33513 12.7127 -3.31359
LeftFoot  2.6595 0.693803 -5.77077
LeftToes  1.06245e-005 4.65869e-005 -8.65517e-006
625
root  14.4508 40.6346 9.80727 148.613 87.7483 151.566
RightUpLeg  2.8679 -11.6139 -12.3616
RightLeg  5.53776 -10.2684 2.67124
RightFoot  -0.0151133 -0.416557 4.20139
RightToes  0.000481921 0.542163 -0.142578
Spine  -2.3686 0.702874 -0.0974273
Spine1  14.4301 0.703727 0.37267
HEad  15.416 -5.61821 1.91608
LeftShoulder1  9.64462 -13.9338 -48.2854
LeftArm  -6.80435 14.7036 -24.8797
LeftForeArm  175.174 -55.2364 -165.99
LeftHand  -0.25398 0.0180481 5.50724
RightShoulder  3.98666 7.67075 29.708
RightArm  -5.98315 23.6112 34.8953
RightForeArm  38.2227 77.9932 79.0855
RightHand  -2.18385 4.89038 -24.6559
LeftUpLeg  2.79221 7.73997 8.86869
LeftLeg  1.42692 12.6037 -3.2878
LeftFoot  2.6777 0.695566 -5.77758
LeftToes  1.06245e-005 4.65869e-005 -8.65517e-006
